HIERARCHY
ROOT Hips
{
  OFFSET -31.5692 30.0904 122.763
  CHANNELS 6 Xposition Yposition Zposition Zrotation Xrotation Yrotation
  JOINT LeftUpLeg
  {
    OFFSET 8.64259 1.95398 -2.38835
    CHANNELS 3 Zrotation Xrotation Yrotation
    JOINT LeftLeg
    {
      OFFSET 43.7702 0 0
      CHANNELS 3 Zrotation Xrotation Yrotation
      JOINT LeftFoot
      {
        OFFSET 40.6238 0 0
        CHANNELS 3 Zrotation Xrotation Yrotation
        JOINT LeftToeBase
        {
          OFFSET 12.7242 0 0
          CHANNELS 3 Zrotation Xrotation Yrotation
          End Site
          {
            OFFSET 0 0 0
          }
        }
      }
    }
  }
  JOINT RightUpLeg
  {
    OFFSET -8.2249 1.95398 -2.59336
    CHANNELS 3 Zrotation Xrotation Yrotation
    JOINT RightLeg
    {
      OFFSET 43.5653 0 0
      CHANNELS 3 Zrotation Xrotation Yrotation
      JOINT RightFoot
      {
        OFFSET 40.6238 0 0
        CHANNELS 3 Zrotation Xrotation Yrotation
        JOINT RightToeBase
        {
          OFFSET 12.7242 0 0
          CHANNELS 3 Zrotation Xrotation Yrotation
          End Site
          {
            OFFSET 0 0 0
          }
        }
      }
    }
  }
  JOINT Spine
  {
    OFFSET 0.165834 0.87714 6.61349
    CHANNELS 3 Zrotation Xrotation Yrotation
    JOINT Spine1
    {
      OFFSET 7.38963 1.71661e-005 0
      CHANNELS 3 Zrotation Xrotation Yrotation
      JOINT Spine2
      {
        OFFSET 11.9445 1.14441e-005 0
        CHANNELS 3 Zrotation Xrotation Yrotation
        JOINT Spine3
        {
          OFFSET 14.7254 4.19617e-005 0
          CHANNELS 3 Zrotation Xrotation Yrotation
          JOINT Spine4
          {
            OFFSET 10.9679 0 0
            CHANNELS 3 Zrotation Xrotation Yrotation
            JOINT RightShoulder
            {
              OFFSET 2.46616 -1.6653 3.69651
              CHANNELS 3 Zrotation Xrotation Yrotation
              JOINT RightArm
              {
                OFFSET 13.0012 0 0
                CHANNELS 3 Zrotation Xrotation Yrotation
                JOINT RightForeArm
                {
                  OFFSET 28.7848 1.62311e-005 0
                  CHANNELS 3 Zrotation Xrotation Yrotation
                  JOINT RightHand
                  {
                    OFFSET 26.5688 1.62095e-005 0
                    CHANNELS 3 Zrotation Xrotation Yrotation
                    End Site
                    {
                      OFFSET 0 0 0
                    }
                  }
                }
              }
            }
            JOINT LeftShoulder
            {
              OFFSET 2.38034 -1.29275 -3.7523
              CHANNELS 3 Zrotation Xrotation Yrotation
              JOINT LeftArm
              {
                OFFSET 16.3182 6.07031e-005 0
                CHANNELS 3 Zrotation Xrotation Yrotation
                JOINT LeftForeArm
                {
                  OFFSET 27.0901 0 0
                  CHANNELS 3 Zrotation Xrotation Yrotation
                  JOINT LeftHand
                  {
                    OFFSET 24.5451 1.51738e-005 0
                    CHANNELS 3 Zrotation Xrotation Yrotation
                    End Site
                    {
                      OFFSET 0 0 0
                    }
                  }
                }
              }
            }
            JOINT Neck
            {
              OFFSET 5.0226 -0.0266342 0
              CHANNELS 3 Zrotation Xrotation Yrotation
              JOINT Head
              {
                OFFSET 6.69364 2.86102e-005 0
                CHANNELS 3 Zrotation Xrotation Yrotation
                End Site
                {
                  OFFSET 0 0 0
                }
              }
            }
          }
        }
      }
    }
  }
}
MOTION
Frames:	11
Frame Time:	0.0416667
36.7617 9.65782 39.7974 4.15305 -9.88915 -1.07122 -174.771 -8.39365 91.8037 -21.3365 38.1427 5.2762 89.3989 21.7074 1.90686 10.2139 -10.8272 2.68368 178.076 -15.2294 92.9014 -10.6297 -20.3594 -7.58154 85.8046 -20.0158 -4.45817 41.7184 -5.64396 -4.30414 1.2678 9.26727 -91.2044 8.35557 1.99947 -2.50227 -3.31642 1.88744 -2.58781 -25.8528 2.65895 -1.78579 -5.84009 2.65894 -1.78579 105.013 21.1922 -43.2896 42.0933 -31.0629 -21.6097 -11.5096 9.24667 -98.3681 101.57 -35.0145 -33.3561 -67.8208 -15.7341 121.506 -25.5609 31.8747 -37.2969 128.507 24.7468 -78.2321 -8.2244 20.7761 -81.5871 72.6009 4.77181 11.6664 -11.874 -5.51913 0.790563 
36.7468 9.64703 39.7626 4.06161 -9.92417 -1.04258 -174.656 -8.2421 91.8687 -21.6609 37.8464 5.18434 89.6757 21.7737 1.64283 9.94049 -10.6923 2.17486 178.236 -15.3963 93.0825 -10.6856 -20.5165 -7.7135 86.3065 -20.6905 -5.13279 40.4065 -5.09117 -3.01209 1.28212 9.25733 -91.1909 8.37579 2.03376 -2.47844 -3.29611 1.92275 -2.5655 -25.8332 2.68448 -1.75273 -5.82061 2.68448 -1.75273 105.066 21.0086 -43.4807 42.0334 -30.2517 -21.2961 -10.251 9.13007 -98.5651 102.774 -34.0001 -32.0108 -67.9401 -15.5311 121.309 -26.1314 30.8587 -36.9902 127.038 24.0663 -78.8406 -8.97929 20.84 -80.2347 72.6282 4.62256 11.5515 -12.0855 -5.56283 0.760584 
36.7593 9.66398 39.7614 4.12202 -9.86798 -1.02967 -174.703 -8.12414 91.8483 -21.7686 37.8875 5.22319 89.6334 21.7368 1.64024 11.2421 -10.6517 3.41912 178.335 -15.3241 93.1514 -10.6935 -20.4569 -7.77199 86.1482 -20.6115 -5.25704 40.7874 -5.25672 -3.26283 1.27076 9.2303 -91.1842 8.42949 2.01339 -2.4656 -3.24239 1.90296 -2.55176 -25.7793 2.66119 -1.74659 -5.76671 2.6612 -1.7466 105.073 20.9407 -43.7098 41.6891 -31.7154 -21.1292 -13.427 9.46463 -98.4054 99.033 -36.5331 -35.817 -68.0383 -15.7061 120.995 -26.0085 30.6587 -36.5667 127.389 24.0902 -78.7391 -8.83383 20.8239 -80.4281 72.5204 4.64031 11.5434 -12.253 -5.55636 0.968611 
36.7489 9.67246 39.8169 4.28709 -9.81766 -1.07012 -174.717 -8.14904 91.8539 -21.5184 37.9887 5.17591 89.6049 21.6262 1.42361 10.5646 -11.0519 3.43523 178.399 -15.1488 93.1293 -10.6932 -20.3726 -7.82535 85.4934 -19.8674 -4.78067 42.2602 -5.87953 -4.76905 1.23533 9.20561 -91.1788 8.47809 1.94448 -2.4522 -3.19388 1.8347 -2.53535 -25.7299 2.59145 -1.75455 -5.71731 2.59144 -1.75455 105.096 20.8123 -44.0149 41.5384 -31.4598 -21.0029 -13.6581 9.38979 -98.4242 98.3874 -37.0641 -36.6015 -68.139 -15.7118 120.75 -25.4674 31.6016 -36.1444 130.943 24.8122 -78.2833 -7.14893 20.7936 -83.894 72.4188 4.57394 11.6205 -12.357 -5.62799 0.634501 
36.7468 9.6764 39.7738 4.14439 -9.81869 -1.05788 -174.727 -8.07812 91.8105 -21.7554 37.9587 5.22421 89.4684 21.7203 1.85114 10.4493 -10.4877 2.31876 178.528 -15.2738 93.2447 -10.7238 -20.3753 -7.93026 86.0539 -20.4131 -5.03588 40.6835 -5.14393 -4.1267 1.25446 9.18448 -91.1631 8.52088 1.98909 -2.42524 -3.15098 1.88045 -2.51039 -25.688 2.62589 -1.71541 -5.67537 2.62589 -1.71541 105.123 20.6289 -44.5051 41.7916 -30.9503 -20.2058 -11.9595 9.49853 -98.8597 100.817 -35.6633 -34.244 -68.2784 -15.6289 120.449 -26.1274 30.1106 -35.7891 126.601 23.6651 -78.864 -9.16535 20.8455 -79.9619 72.3249 4.56225 11.5353 -12.4433 -5.55846 0.654101 
36.7599 9.66513 39.7463 4.19803 -9.87261 -1.07809 -174.744 -8.09048 91.7893 -21.8866 37.9038 5.25849 89.5895 21.7758 1.79459 9.95884 -9.96714 0.9188 178.553 -15.3917 93.2773 -10.7359 -20.3821 -7.98999 86.5299 -20.9342 -5.39363 39.8867 -4.82858 -3.13855 1.23225 9.16755 -91.1561 8.55408 1.9475 -2.40981 -3.11777 1.83959 -2.49315 -25.6544 2.5816 -1.71321 -5.64173 2.5816 -1.71319 105.099 20.6328 -44.7824 41.7246 -31.2209 -20.1083 -12.557 9.47236 -98.7518 99.589 -36.1743 -35.2661 -68.401 -15.7282 120.112 -25.9736 30.1951 -35.2306 128.098 24.0494 -78.7481 -8.24825 20.6362 -81.4202 72.2327 4.57285 11.4697 -12.686 -5.47487 0.550573 
36.7373 9.68921 39.7414 4.10608 -9.80768 -1.03733 -174.801 -8.01154 91.8177 -21.8724 37.5231 5.31477 89.9988 21.7277 1.08289 10.8406 -10.693 3.08115 178.728 -15.3144 93.4223 -10.7565 -20.3498 -8.07494 86.3442 -20.9054 -5.64355 40.0187 -4.91672 -2.85687 1.23334 9.13795 -91.1514 8.61349 1.95105 -2.4026 -3.05839 1.84344 -2.48609 -25.5951 2.5828 -1.70523 -5.58245 2.58281 -1.70525 105.123 20.4949 -45.0841 41.6117 -30.7288 -19.9357 -12.5993 9.32457 -98.6084 100.149 -36.016 -34.8395 -68.5281 -15.8565 119.752 -25.9925 29.4213 -34.6541 126.544 23.2641 -78.8119 -9.1659 20.9607 -80.2955 72.063 4.49543 11.3938 -12.8723 -5.4539 0.485066 
36.7618 9.69915 39.7519 4.24115 -9.92698 -0.993435 -174.72 -8.03338 91.8886 -22.0403 37.8668 5.30514 89.7846 21.7389 1.43252 10.664 -10.5744 2.69112 178.755 -15.4287 93.4729 -10.7373 -20.1921 -8.08658 86.3984 -20.9066 -5.57278 39.8187 -4.75624 -3.60108 1.21704 9.12188 -91.145 8.6451 1.92096 -2.38897 -3.02672 1.81399 -2.47116 -25.5632 2.55003 -1.7013 -5.55051 2.55002 -1.7013 105.144 20.3252 -45.5555 41.5077 -31.3891 -19.4663 -13.2567 9.56602 -98.7524 99.6596 -36.5621 -35.5255 -68.7173 -15.8931 119.281 -25.3747 30.2178 -34.4738 129.805 24.3457 -78.3041 -7.38874 20.6267 -83.2239 71.9924 4.42129 11.5585 -13.0276 -5.60439 0.109447 
36.7643 9.69859 39.7529 4.09154 -9.92092 -1.06393 -174.676 -8.21078 91.8392 -21.66 37.9958 5.19677 89.5796 21.7652 1.77512 9.74395 -10.4872 1.62558 178.774 -15.3759 93.3983 -10.785 -20.3461 -8.16793 86.1485 -20.6711 -5.50301 40.4929 -5.12066 -3.1734 1.21319 9.0889 -91.1298 8.71104 1.9193 -2.36078 -2.96082 1.81357 -2.44292 -25.4975 2.53996 -1.67489 -5.48485 2.53996 -1.67491 105.154 20.1581 -46.1098 41.4134 -30.9976 -19.1212 -13.4945 9.45004 -98.5903 98.8179 -37.0279 -36.3486 -68.8628 -16.0239 118.878 -26.1156 28.5324 -33.6957 126.513 23.2035 -78.9669 -8.9829 20.7739 -80.3016 71.8655 4.49271 11.4834 -13.102 -5.48071 0.255482 
36.7592 9.68552 39.774 4.08867 -9.92691 -1.05351 -174.699 -8.28904 91.8457 -21.5469 37.895 5.22922 89.4533 21.6657 1.75791 10.7384 -10.0853 1.89969 178.84 -15.3499 93.4182 -10.7822 -20.2794 -8.20693 85.9801 -20.3306 -5.0629 41.3116 -5.54471 -2.72406 1.20274 9.0584 -91.1134 8.77198 1.90498 -2.32936 -2.8998 1.80065 -2.41089 -25.4366 2.51687 -1.64923 -5.42397 2.51688 -1.64921 105.173 20.0097 -46.4822 41.2417 -30.6495 -18.8544 -12.5764 9.32203 -98.5605 99.4002 -36.7093 -35.8133 -69.0814 -16.0465 118.343 -25.9646 28.0523 -32.9706 126.333 22.8632 -79.1266 -9.02478 20.7994 -80.3883 71.725 4.51372 11.3735 -13.3208 -5.36484 0.32175 
36.7943 9.66792 39.8327 4.11625 -9.96054 -1.03955 -174.637 -8.39989 91.8759 -21.3457 38.0159 5.14242 89.4886 21.6454 1.63643 8.8466 -10.7605 1.22466 178.854 -15.2555 93.324 -10.6947 -19.6846 -8.20018 85.6709 -19.4506 -3.62228 43.0909 -6.20941 -6.47119 1.18919 9.02688 -91.0988 8.83453 1.88374 -2.30093 -2.83723 1.78067 -2.38158 -25.374 2.48807 -1.6285 -5.36139 2.48808 -1.6285 105.218 19.7137 -47.0906 41.3408 -29.7214 -18.3013 -11.6603 9.14808 -98.38 101.052 -34.8766 -33.4728 -69.2675 -16.1106 117.87 -25.7982 27.6826 -32.5482 125.865 22.8602 -79.2424 -9.34082 20.9249 -79.988 71.5916 4.23402 11.2311 -13.5404 -5.47451 0.24886 
